<svg width="12" height="11" viewBox="0 0 12 11" fill="none" xmlns="http://www.w3.org/2000/svg">
<path id="Vector" d="M10.3364 0.213399C10.1386 0.105315 9.92103 0.0365805 9.69615 0.0111259C9.47127 -0.0143286 9.24349 0.00399599 9.02583 0.0650521C8.80817 0.126108 8.6049 0.228698 8.42765 0.366955C8.25039 0.505212 8.10263 0.676423 7.99281 0.870799L4.79365 6.52427L2.96272 4.72636C2.80376 4.56474 2.61361 4.43583 2.40337 4.34715C2.19313 4.25846 1.96701 4.21178 1.7382 4.20983C1.50939 4.20788 1.28248 4.25069 1.0707 4.33577C0.85892 4.42086 0.666519 4.5465 0.504721 4.70539C0.342923 4.86427 0.214968 5.0532 0.128323 5.26116C0.0416774 5.46911 -0.00192322 5.69194 6.50633e-05 5.91662C0.00205335 6.1413 0.0495907 6.36334 0.139903 6.56979C0.230216 6.77624 0.361495 6.96296 0.52608 7.11906L3.97253 10.5034C4.29822 10.824 4.73764 11 5.19085 11L5.42952 10.9831C5.69364 10.9468 5.94559 10.8508 6.16552 10.7027C6.38546 10.5545 6.56737 10.3583 6.69695 10.1294L11.005 2.51472C11.115 2.32051 11.185 2.10692 11.2109 1.88616C11.2368 1.66539 11.2182 1.44178 11.1561 1.22808C11.094 1.01438 10.9897 0.814779 10.849 0.640679C10.7084 0.46658 10.5342 0.32139 10.3364 0.213399Z" fill="url(#paint0_linear_20_322)"/>
<defs>
<linearGradient id="paint0_linear_20_322" x1="-6.27091e-08" y1="5.5" x2="10.7231" y2="11.8437" gradientUnits="userSpaceOnUse">
<stop stop-color="#FCBE12"/>
<stop offset="1" stop-color="#BB8A04"/>
</linearGradient>
</defs>
</svg>
